<?xml version="1.0" encoding="utf-8"?>
<!-- Generator: Adobe Illustrator 18.0.0, SVG Export Plug-In . SVG Version: 6.00 Build 0)  -->
<!DOCTYPE svg PUBLIC "-//W3C//DTD SVG 1.1//EN" "http://www.w3.org/Graphics/SVG/1.1/DTD/svg11.dtd">
<svg version="1.1" id="Layer_1" xmlns="http://www.w3.org/2000/svg" xmlns:xlink="http://www.w3.org/1999/xlink" x="0px" y="0px"
	 viewBox="104.4 472.6 521.8 339.9" enable-background="new 104.4 472.6 521.8 339.9" xml:space="preserve">
	<g id="AK">
		<polygon class="AK" fill="#D1D3D4" stroke="#FFFFFF" points="150.8,522.9 128.1,535.9 105.4,522.9 105.4,496.7 128.1,483.6 150.8,496.7 "/>
		<text transform="matrix(1 0 0 1 119.6524 514.7266)" font-family="'ArialMT'" font-size="12.6099">AK</text>
	</g>
	<g id="AL">
		<polygon class="AL" fill="#D1D3D4" stroke="#FFFFFF" points="444.6,747.9 422,761 399.3,747.9 399.3,721.6 422,708.7 444.6,721.6 "/>
		<text transform="matrix(1 0 0 1 414.2793 739.8125)" font-family="'ArialMT'" font-size="12.6099">AL</text>
	</g>
	<g id="AR">
		<polygon class="AR" fill="#D1D3D4" stroke="#FFFFFF" points="376.6,708.7 353.9,721.6 331.3,708.7 331.3,682.4 353.9,669.3 376.6,682.4 "/>
		<text transform="matrix(1 0 0 1 345.2148 700.4424)" font-family="'ArialMT'" font-size="12.6099">AR</text>
	</g>
	<g id="AZ">
		<polygon class="AZ" fill="#D1D3D4" stroke="#FFFFFF" points="263.1,747.9 240.4,761 217.7,747.9 217.7,721.6 240.4,708.7 263.1,721.6 "/>
		<text transform="matrix(1 0 0 1 232.376 739.8125)" font-family="'ArialMT'" font-size="12.6099">AZ</text>
	</g>
	<g id="CA">
		<polygon class="CA" fill="#D1D3D4" stroke="#FFFFFF" points="195,708.7 172.3,721.6 149.8,708.7 149.8,682.4 172.3,669.3 195,682.4 "/>
		<text transform="matrix(1 0 0 1 163.6294 700.4424)" font-family="'ArialMT'" font-size="12.6099">CA</text>
	</g>
	<g id="CO">
		<polygon class="CO" fill="#D1D3D4" stroke="#FFFFFF" points="263.1,669.3 240.4,682.3 217.7,669.3 217.7,643.1 240.4,629.9 263.1,643.1 "/>
		<text transform="matrix(1 0 0 1 230.9634 661.0722)" font-family="'ArialMT'" font-size="12.6099">CO</text>
	</g>
	<g id="CT">
		<polygon class="CT" fill="#D1D3D4" stroke="#FFFFFF" points="603.5,629.9 580.7,643.1 558,629.9 558,603.7 580.7,590.7 603.5,603.7 "/>
		<text transform="matrix(1 0 0 1 572.375 621.8779)" font-family="'ArialMT'" font-size="12.6099">CT</text>
	</g>
	<g id="DC">
		<polygon class="DC" fill="#D1D3D4" stroke="#FFFFFF" points="558,708.7 535.3,721.6 512.7,708.7 512.7,682.4 535.3,669.3 558,682.4 "/>
		<text transform="matrix(1 0 0 1 526.2393 700.4424)" font-family="'ArialMT'" font-size="12.6099">DC</text>
	</g>
	<g id="DE">
		<polygon class="DE" fill="#D1D3D4" stroke="#FFFFFF" points="580.7,669.3 558,682.3 535.3,669.3 535.3,643.1 558,629.9 580.7,643.1 "/>
		<text transform="matrix(1 0 0 1 549.2607 661.0722)" font-family="'ArialMT'" font-size="12.6099">DE</text>
	</g>
	<g id="FL">
		<polygon class="FL" fill="#D1D3D4" stroke="#FFFFFF" points="467.3,787.2 444.6,800.4 422,787.2 422,761 444.6,748 467.3,761 "/>
		<text transform="matrix(1 0 0 1 437.2959 779.1826)" font-family="'ArialMT'" font-size="12.6099">FL</text>
	</g>
	<g id="GA">
		<polygon class="GA" fill="#D1D3D4" stroke="#FFFFFF" points="490,747.9 467.3,761 444.6,747.9 444.6,721.6 467.3,708.7 490,721.6 "/>
		<text transform="matrix(1 0 0 1 458.2031 739.8125)" font-family="'ArialMT'" font-size="12.6099">GA</text>
	</g>
	<g id="HI">
		<polygon class="HI" fill="#D1D3D4" stroke="#FFFFFF" points="149.8,799.4 127.1,812.4 104.4,799.4 104.4,773 127.1,760 149.8,773 "/>
		<text transform="matrix(1 0 0 1 120.7471 791.1982)" font-family="'ArialMT'" font-size="12.6099">HI</text>
	</g>
	<g id="IA">
		<polygon class="IA" fill="#D1D3D4" stroke="#FFFFFF" points="331.3,629.9 308.4,643.1 285.7,629.9 285.7,603.7 308.4,590.7 331.3,603.7 "/>
		<text transform="matrix(1 0 0 1 302.5566 621.8779)" font-family="'ArialMT'" font-size="12.6099">IA</text>
	</g>
	<g id="ID">
		<polygon class="ID" fill="#D1D3D4" stroke="#FFFFFF" points="195,629.9 172.3,643.1 149.8,629.9 149.8,603.7 172.3,590.7 195,603.7 "/>
		<text transform="matrix(1 0 0 1 166.0967 621.8779)" font-family="'ArialMT'" font-size="12.6099">ID</text>
	</g>
	<g id="IL">
		<polygon class="IL" fill="#D1D3D4" stroke="#FFFFFF" points="376.6,629.9 353.9,643.1 331.3,629.9 331.3,603.7 353.9,590.7 376.6,603.7 "/>
		<text transform="matrix(1 0 0 1 348.7031 621.8779)" font-family="'ArialMT'" font-size="12.6099">IL</text>
	</g>
	<g id="IN">
		<polygon class="IN" fill="#D1D3D4" stroke="#FFFFFF" points="422,629.9 399.3,643.1 376.6,629.9 376.6,603.7 399.3,590.7 422,603.7 "/>
		<text transform="matrix(1 0 0 1 393.0029 621.8779)" font-family="'ArialMT'" font-size="12.6099">IN</text>
	</g>
	<g id="KS">
		<polygon class="KS" fill="#D1D3D4" stroke="#FFFFFF" points="331.3,708.7 308.4,721.6 285.7,708.7 285.7,682.4 308.4,669.3 331.3,682.4 "/>
		<text transform="matrix(1 0 0 1 300.1167 700.4424)" font-family="'ArialMT'" font-size="12.6099">KS</text>
	</g>
	<g id="KY">
		<polygon class="KY" fill="#D1D3D4" stroke="#FFFFFF" points="399.3,669.3 376.6,682.3 353.9,669.3 353.9,643.1 376.6,629.9 399.3,643.1 "/>
		<text transform="matrix(1 0 0 1 368.2236 661.0722)" font-family="'ArialMT'" font-size="12.6099">KY</text>
	</g>
	<g id="LA">
		<polygon class="LA" fill="#D1D3D4" stroke="#FFFFFF" points="353.9,747.9 331.3,761 308.4,747.9 308.4,721.6 331.3,708.7 353.9,721.6 "/>
		<text transform="matrix(1 0 0 1 323.4746 739.8125)" font-family="'ArialMT'" font-size="12.6099">LA</text>
	</g>
	<g id="MA">
		<polygon class="MA" fill="#D1D3D4" stroke="#FFFFFF" points="580.7,590.7 558,603.7 535.3,590.7 535.3,564.5 558,551.4 580.7,564.5 "/>
		<text transform="matrix(1 0 0 1 548.5469 582.5078)" font-family="'ArialMT'" font-size="12.6099">MA</text>
	</g>
	<g id="MD">
		<polygon class="MD" fill="#D1D3D4" stroke="#FFFFFF" points="535.3,669.3 512.7,682.3 490,669.3 490,643.1 512.7,629.9 535.3,643.1 "/>
		<text transform="matrix(1 0 0 1 502.8672 661.0722)" font-family="'ArialMT'" font-size="12.6099">MD</text>
	</g>
	<g id="ME">
		<polygon class="ME" fill="#D1D3D4" stroke="#FFFFFF" points="626.2,512 603.5,525 580.7,512 580.7,485.8 603.5,472.6 626.2,485.8 "/>
		<text transform="matrix(1 0 0 1 593.9951 503.7675)" font-family="'ArialMT'" font-size="12.6099">ME</text>
	</g>
	<g id="MI">
		<polygon class="MI" fill="#D1D3D4" stroke="#FFFFFF" points="444.6,590.7 422,603.7 399.3,590.7 399.3,564.5 422,551.4 444.6,564.5 "/>
		<text transform="matrix(1 0 0 1 414.9775 582.5078)" font-family="'ArialMT'" font-size="12.6099">MI</text>
	</g>
	<g id="MN">
		<polygon class="MN" fill="#D1D3D4" stroke="#FFFFFF" points="308.4,590.7 285.7,603.7 263.1,590.7 263.1,564.5 285.7,551.4 308.4,564.5 "/>
		<text transform="matrix(1 0 0 1 275.9619 582.5078)" font-family="'ArialMT'" font-size="12.6099">MN</text>
	</g>
	<g id="MO">
		<polygon class="MO" fill="#D1D3D4" stroke="#FFFFFF" points="353.9,669.3 331.3,682.3 308.4,669.3 308.4,643.1 331.3,629.9 353.9,643.1 "/>
		<text transform="matrix(1 0 0 1 321.0439 661.0722)" font-family="'ArialMT'" font-size="12.6099">MO</text>
	</g>
	<g id="MS">
		<polygon class="MS" fill="#D1D3D4" stroke="#FFFFFF" points="399.3,747.9 376.6,761 353.9,747.9 353.9,721.6 376.6,708.7 399.3,721.6 "/>
		<text transform="matrix(1 0 0 1 367.1768 739.8125)" font-family="'ArialMT'" font-size="12.6099">MS</text>
	</g>
	<g id="MT">
		<polygon class="MT" fill="#D1D3D4" stroke="#FFFFFF" points="217.7,590.7 195,603.7 172.3,590.7 172.3,564.5 195,551.4 217.7,564.5 "/>
		<text transform="matrix(1 0 0 1 185.9717 582.5078)" font-family="'ArialMT'" font-size="12.6099">MT</text>
	</g>
	<g id="NC">
		<polygon class="NC" fill="#D1D3D4" stroke="#FFFFFF" points="467.3,708.7 444.6,721.6 422,708.7 422,682.4 444.6,669.3 467.3,682.4 "/>
		<text transform="matrix(1 0 0 1 435.5469 700.4424)" font-family="'ArialMT'" font-size="12.6099">NC</text>
	</g>
	<g id="ND">
		<polygon class="ND" fill="#D1D3D4" stroke="#FFFFFF" points="263.1,590.7 240.4,603.7 217.7,590.7 217.7,564.5 240.4,551.4 263.1,564.5 "/>
		<text transform="matrix(1 0 0 1 231.3145 582.5078)" font-family="'ArialMT'" font-size="12.6099">ND</text>
	</g>
	<g id="NE">
		<polygon class="NE" fill="#D1D3D4" stroke="#FFFFFF" points="308.4,669.3 285.7,682.3 263.1,669.3 263.1,643.1 285.7,629.9 308.4,643.1 "/>
		<text transform="matrix(1 0 0 1 277.0083 661.0722)" font-family="'ArialMT'" font-size="12.6099">NE</text>
	</g>
	<g id="NH">
		<polygon class="NH" fill="#D1D3D4" stroke="#FFFFFF" points="603.5,551.4 580.7,564.5 558,551.4 558,525.1 580.7,512.2 603.5,525.1 "/>
		<text transform="matrix(1 0 0 1 571.6729 543.3135)" font-family="'ArialMT'" font-size="12.6099">NH</text>
	</g>
	<g id="NJ">
		<polygon class="NJ" fill="#D1D3D4" stroke="#FFFFFF" points="558,629.9 535.3,643.1 512.7,629.9 512.7,603.7 535.3,590.7 558,603.7 "/>
		<text transform="matrix(1 0 0 1 527.6396 621.8779)" font-family="'ArialMT'" font-size="12.6099">NJ</text>
	</g>
	<g id="NM">
		<polygon class="NM" fill="#D1D3D4" stroke="#FFFFFF" points="285.7,708.7 263.1,721.6 240.4,708.7 240.4,682.4 263.1,669.3 285.7,682.4 "/>
		<text transform="matrix(1 0 0 1 253.2886 700.4424)" font-family="'ArialMT'" font-size="12.6099">NM</text>
	</g>
	<g id="NV">
		<polygon class="NV" fill="#D1D3D4" stroke="#FFFFFF" points="217.7,669.3 195,682.3 172.3,669.3 172.3,643.1 195,629.9 217.7,643.1 "/>
		<text transform="matrix(1 0 0 1 186.3164 661.0722)" font-family="'ArialMT'" font-size="12.6099">NV</text>
	</g>
	<g id="NY">
		<polygon class="NY" fill="#D1D3D4" stroke="#FFFFFF" points="535.3,590.7 512.7,603.7 490,590.7 490,564.5 512.7,551.4 535.3,564.5 "/>
		<text transform="matrix(1 0 0 1 503.9131 582.5078)" font-family="'ArialMT'" font-size="12.6099">NY</text>
	</g>
	<g id="OH">
		<polygon class="OH" fill="#D1D3D4" stroke="#FFFFFF" points="467.3,629.9 444.6,643.1 422,629.9 422,603.7 444.6,590.7 467.3,603.7 "/>
		<text transform="matrix(1 0 0 1 435.1963 621.8779)" font-family="'ArialMT'" font-size="12.6099">OH</text>
	</g>
	<g id="OK">
		<polygon class="OK" fill="#D1D3D4" stroke="#FFFFFF" points="308.4,747.9 285.7,761 263.1,747.9 263.1,721.6 285.7,708.7 308.4,721.6 "/>
		<text transform="matrix(1 0 0 1 276.6572 739.8125)" font-family="'ArialMT'" font-size="12.6099">OK</text>
	</g>
	<g id="OR">
		<polygon class="OR" fill="#D1D3D4" stroke="#FFFFFF" points="172.3,669.3 149.8,682.3 127.1,669.3 127.1,643.1 149.8,629.9 172.3,643.1 "/>
		<text transform="matrix(1 0 0 1 140.2715 661.0722)" font-family="'ArialMT'" font-size="12.6099">OR</text>
	</g>
	<g id="PA">
		<polygon class="PA" fill="#D1D3D4" stroke="#FFFFFF" points="512.7,629.9 490,643.1 467.3,629.9 467.3,603.7 490,590.7 512.7,603.7 "/>
		<text transform="matrix(1 0 0 1 481.5742 621.8779)" font-family="'ArialMT'" font-size="12.6099">PA</text>
	</g>
	<g id="RI">
		<polygon class="RI" fill="#D1D3D4" stroke="#FFFFFF" points="626.2,590.7 603.5,603.7 580.7,590.7 580.7,564.5 603.5,551.4 626.2,564.5 "/>
		<text transform="matrix(1 0 0 1 597.1475 582.5078)" font-family="'ArialMT'" font-size="12.6099">RI</text>
	</g>
	<g id="SC">
		<polygon class="SC" fill="#D1D3D4" stroke="#FFFFFF" points="512.7,708.7 490,721.6 467.3,708.7 467.3,682.4 490,669.3 512.7,682.4 "/>
		<text transform="matrix(1 0 0 1 481.2412 700.4424)" font-family="'ArialMT'" font-size="12.6099">SC</text>
	</g>
	<g id="SD">
		<polygon class="SD" fill="#D1D3D4" stroke="#FFFFFF" points="285.7,629.9 263.1,643.1 240.4,629.9 240.4,603.7 263.1,590.7 285.7,603.7 "/>
		<text transform="matrix(1 0 0 1 254.3349 621.8779)" font-family="'ArialMT'" font-size="12.6099">SD</text>
	</g>
	<g id="TN">
		<polygon class="TN" fill="#D1D3D4" stroke="#FFFFFF" points="422,708.7 399.3,721.6 376.6,708.7 376.6,682.4 399.3,669.3 422,682.4 "/>
		<text transform="matrix(1 0 0 1 390.9023 700.4424)" font-family="'ArialMT'" font-size="12.6099">TN</text>
	</g>
	<g id="TX">
		<polygon class="TX" fill="#D1D3D4" stroke="#FFFFFF" points="331.3,787.2 308.4,800.4 285.7,787.2 285.7,761 308.4,748 331.3,761 "/>
		<text transform="matrix(1 0 0 1 300.4707 779.1826)" font-family="'ArialMT'" font-size="12.6099">TX</text>
	</g>
	<g id="UT">
		<polygon class="UT" fill="#D1D3D4" stroke="#FFFFFF" points="240.4,708.7 217.7,721.6 195,708.7 195,682.4 217.7,669.3 240.4,682.4 "/>
		<text transform="matrix(1 0 0 1 209.3433 700.4424)" font-family="'ArialMT'" font-size="12.6099">UT</text>
	</g>
	<g id="VA">
		<polygon class="VA" fill="#D1D3D4" stroke="#FFFFFF" points="490,669.3 467.3,682.3 444.6,669.3 444.6,643.1 467.3,629.9 490,643.1 "/>
		<text transform="matrix(1 0 0 1 458.9014 661.0722)" font-family="'ArialMT'" font-size="12.6099">VA</text>
	</g>
	<g id="VT">
		<polygon class="VT" fill="#D1D3D4" stroke="#FFFFFF" points="558,551.4 535.3,564.5 512.7,551.4 512.7,525.1 535.3,512.2 558,525.1 "/>
		<text transform="matrix(1 0 0 1 527.2891 543.3135)" font-family="'ArialMT'" font-size="12.6099">VT</text>
	</g>
	<g id="WA">
		<polygon class="WA" fill="#D1D3D4" stroke="#FFFFFF" points="172.3,590.7 149.8,603.7 127.1,590.7 127.1,564.5 149.8,551.4 172.3,564.5 "/>
		<text transform="matrix(1 0 0 1 139.5586 582.5078)" font-family="'ArialMT'" font-size="12.6099">WA</text>
	</g>
	<g id="WI">
		<polygon class="WI" fill="#D1D3D4" stroke="#FFFFFF" points="353.9,590.7 331.3,603.7 308.4,590.7 308.4,564.5 331.3,551.4 353.9,564.5 "/>
		<text transform="matrix(1 0 0 1 323.498 582.5078)" font-family="'ArialMT'" font-size="12.6099">WI</text>
	</g>
	<g id="WV">
		<polygon class="WV" fill="#D1D3D4" stroke="#FFFFFF" points="444.6,669.3 422,682.3 399.3,669.3 399.3,643.1 422,629.9 444.6,643.1 "/>
		<text transform="matrix(1 0 0 1 411.8242 661.0722)" font-family="'ArialMT'" font-size="12.6099">WV</text>
	</g>
	<g id="WY">
		<polygon class="WY" fill="#D1D3D4" stroke="#FFFFFF" points="240.4,629.9 217.7,643.1 195,629.9 195,603.7 217.7,590.7 240.4,603.7 "/>
		<text transform="matrix(1 0 0 1 207.5913 621.8779)" font-family="'ArialMT'" font-size="12.6099">WY</text>
	</g>
</svg>
